<?xml version="1.0" encoding="utf-8"?>
<!-- Generator: Adobe Illustrator 24.2.3, SVG Export Plug-In . SVG Version: 6.00 Build 0)  -->
<svg version="1.1" id="Layer_1" xmlns="http://www.w3.org/2000/svg" xmlns:xlink="http://www.w3.org/1999/xlink" x="0px" y="0px"
	 viewBox="0 0 556.18 556.18" style="enable-background:new 0 0 556.18 556.18;" xml:space="preserve">
<style type="text/css">
	.st0{fill:#00AEEF;}
	.st1{fill:#0060AA;}
	.st2{fill:#FFFFFF;}
	.st3{fill:none;stroke:#00AEEF;stroke-width:3;stroke-linecap:round;stroke-linejoin:round;stroke-miterlimit:10;}
	.st4{fill:none;stroke:#00AEEF;stroke-width:5;stroke-linecap:round;stroke-miterlimit:10;}
	.st5{fill:none;stroke:#00AEEF;stroke-width:3;stroke-linecap:round;stroke-miterlimit:10;}
	.st6{fill:none;stroke:#0060AA;stroke-width:3;stroke-linecap:round;stroke-linejoin:round;stroke-miterlimit:10;}
</style>
<g>
	<path class="st0" d="M514.26,277.4c0,130.43-105.73,236.16-236.16,236.16S41.93,407.83,41.93,277.4c0,0,96.01,77,236.16,0.12
		C407.59,206.49,514.26,277.4,514.26,277.4z"/>
	<path class="st1" d="M514.26,277.45c0-130.43-105.73-236.16-236.16-236.16S41.93,147.02,41.93,277.45c0,0,92.7,79.37,236.16,0
		C403.63,207.99,514.26,277.45,514.26,277.45z"/>
	<g>
		<path class="st2" d="M504.05,354.4c0,0,18.52-48.19-25.53-67.83c-45.62-20.34-78.13,30.64-78.13,30.64s-42.13,71.23-67.4,105.7
			c-25.28,34.47-61.18,61.29-113.36,62.24s-52.09-30.83-52.09-30.83s31.15-18.89,21.91-79.09c0,0-45.23,23.89-39.1,71.09
			c0,0-10.65-45.28-52.1-55.15c0,0-8.83,35.32,30.56,69.24c40.22,34.63,113.42,90.24,234.86,42.26
			C475.67,458.41,504.05,354.4,504.05,354.4z"/>
		<circle class="st0" cx="451.2" cy="325.63" r="3.57"/>
		<path class="st3" d="M489.76,290.91c0,0-13.79,58.72-22.72,55.4"/>
		<polyline class="st2" points="456.05,281.78 483.97,179.08 473.55,284.61 		"/>
		<path class="st4" d="M474.21,280.93"/>
		<path class="st4" d="M458.65,270.23"/>
		<path class="st4" d="M479.42,249.17"/>
		<path class="st4" d="M464.74,240.49"/>
		<path class="st4" d="M485.54,227.08"/>
		<path class="st4" d="M472.08,215.72"/>
		<path class="st5" d="M487.08,204.87"/>
		<path class="st5" d="M476.74,196.57"/>
		<path class="st3" d="M454.71,280.94l-2.87,9.29c0,0,9.91,7.6,22.15,5.75l1.12-11.8"/>
		<path class="st3" d="M461.16,259.51c0,0,4.09,10.09,17.23,14.04"/>
		<path class="st6" d="M467.03,239.59c0,0,4,10.6,16.94,16.34"/>
		<path class="st6" d="M472.08,220.44c0,0,3.13,8.81,10.79,9.57"/>
		<path class="st6" d="M476.74,201.17c0,0-0.38,4.47,6.13,7.53"/>
	</g>
	<g>
		<path class="st2" d="M50.44,205.11c0,0-17.51,48.56,26.95,67.28c46.03,19.38,77.47-32.27,77.47-32.27s40.63-72.1,65.18-107.09
			s59.88-62.56,112.03-64.59c52.15-2.03,52.72,29.74,52.72,29.74s-30.75,19.54-20.25,79.53c0,0,44.72-24.84,37.6-71.89
			c0,0,11.6,45.04,53.24,54.05c0,0,8.09-35.5-32-68.58C382.45,57.5,307.4,5.34,186.99,55.85C75.94,102.44,50.44,205.11,50.44,205.11
			z"/>
		<circle class="st1" cx="103.88" cy="232.76" r="3.57"/>
		<path class="st6" d="M66.06,268.28c0,0,12.56-59,21.56-55.87"/>
		<polyline class="st2" points="99.95,276.71 74.19,379.97 82.39,274.24 		"/>
		<path class="st4" d="M81.81,277.94"/>
		<path class="st4" d="M97.59,288.31"/>
		<path class="st4" d="M77.27,309.8"/>
		<path class="st4" d="M92.13,318.17"/>
		<path class="st4" d="M71.61,332.01"/>
		<path class="st4" d="M85.31,343.09"/>
		<path class="st5" d="M70.54,354.25"/>
		<path class="st5" d="M81.05,362.33"/>
		<path class="st6" d="M101.31,277.52l2.68-9.35c0,0-10.07-7.39-22.26-5.28l-0.87,11.82"/>
		<path class="st6" d="M95.31,299.08c0,0-4.3-10-17.52-13.68"/>
		<path class="st3" d="M89.85,319.12c0,0-4.22-10.51-17.27-15.98"/>
		<path class="st3" d="M85.21,338.37c0,0-3.31-8.74-10.99-9.35"/>
		<path class="st3" d="M80.96,357.74c0,0,0.29-4.48-6.28-7.4"/>
	</g>
</g>
</svg>
