<?xml version="1.0" encoding="utf-8"?>
<!-- Generator: Adobe Illustrator 24.2.3, SVG Export Plug-In . SVG Version: 6.00 Build 0)  -->
<svg version="1.1" id="Layer_1" xmlns="http://www.w3.org/2000/svg" xmlns:xlink="http://www.w3.org/1999/xlink" x="0px" y="0px"
	 viewBox="0 0 1000 1000" style="enable-background:new 0 0 1000 1000;" xml:space="preserve">
<style type="text/css">
	.st0{fill:#0060AA;}
	.st1{fill:#00AEEF;}
</style>
<g>
	<g>
		<path class="st0" d="M41.09,506.31h33.62l34.17,65.75l13.48,30.48h0.92c-1.85-14.59-4.43-34.36-4.43-50.79v-45.44h31.4v137.42
			h-33.62l-33.99-66.31l-13.48-30.11h-0.92c1.48,15.33,4.25,34.17,4.25,50.79v45.62h-31.4V506.31z"/>
		<path class="st0" d="M247.04,612.14h-40.63l-7.94,31.58h-33.62l42.67-137.42h39.53l42.67,137.42h-34.72L247.04,612.14z
			 M240.76,586.65l-2.96-11.64c-3.69-13.67-7.2-30.11-10.9-44.14h-0.74c-3.33,14.41-7.02,30.48-10.53,44.14l-2.96,11.64H240.76z"/>
		<path class="st0" d="M378.37,643.73l-25.3-48.39h-15.88v48.39h-33.06V506.31h50.42c29.37,0,53.75,9.97,53.75,43.22
			c0,20.13-9.42,33.06-23.64,39.71l30.66,54.49H378.37z M337.18,569.29h14.78c15.7,0,24.01-6.83,24.01-19.76
			c0-12.93-8.31-17.18-24.01-17.18h-14.78V569.29z"/>
		<path class="st0" d="M421.59,506.31h33.8l8.68,62.61l5.54,43.59h0.74c2.59-14.59,5.36-29.37,8.13-43.59l14.04-62.61h27.71
			l14.41,62.61c2.77,14.04,5.17,28.81,7.94,43.59h0.92c1.66-14.78,3.51-29.37,5.17-43.59l8.87-62.61h31.4l-23.83,137.42h-41.56
			l-12.37-59.84c-2.22-10.53-4.06-21.61-5.36-31.95h-0.92c-1.66,10.34-3.33,21.43-5.36,31.95l-12.01,59.84h-40.82L421.59,506.31z"/>
		<path class="st0" d="M607.6,506.31h33.06v52.27h45.25v-52.27h32.69v137.42h-32.69v-56.52h-45.25v56.52H607.6V506.31z"/>
		<path class="st0" d="M815.39,612.14h-40.63l-7.94,31.58H733.2l42.67-137.42h39.53l42.67,137.42h-34.72L815.39,612.14z
			 M809.11,586.65l-2.96-11.64c-3.69-13.67-7.2-30.11-10.9-44.14h-0.74c-3.33,14.41-7.02,30.48-10.53,44.14l-2.96,11.64H809.11z"/>
		<path class="st0" d="M872.46,506.31h33.06v109.71h53.38v27.71h-86.44V506.31z"/>
	</g>
	<g>
		<g>
			<path class="st1" d="M41.09,356.27h33.01v52.19h45.18v-52.19h32.64v137.2h-32.64v-56.43H74.11v56.43H41.09V356.27z"/>
			<path class="st1" d="M248.55,461.94h-40.57l-7.93,31.53h-33.56l42.6-137.2h39.47l42.6,137.2h-34.67L248.55,461.94z
				 M242.28,436.49l-2.95-11.62c-3.69-13.65-7.19-30.06-10.88-44.07h-0.73c-3.32,14.38-7.01,30.43-10.51,44.07l-2.95,11.62H242.28z"
				/>
			<path class="st1" d="M305.52,356.27h48.13c30.24,0,55.14,10.69,55.14,44.63c0,32.64-25.26,47.03-54.21,47.03h-16.05v45.55h-33.01
				V356.27z M352.92,421.92c16.05,0,23.79-7.56,23.79-21.02c0-13.83-8.85-18.63-24.71-18.63h-13.46v39.65H352.92z"/>
			<path class="st1" d="M432.2,356.27h48.13c30.24,0,55.14,10.69,55.14,44.63c0,32.64-25.26,47.03-54.21,47.03h-16.05v45.55H432.2
				V356.27z M479.6,421.92c16.05,0,23.79-7.56,23.79-21.02c0-13.83-8.85-18.63-24.71-18.63h-13.46v39.65H479.6z"/>
			<path class="st1" d="M580.46,444.97l-41.31-88.7h35.04l11.44,30.43c3.69,10.33,7.19,19.92,11.06,30.61h0.74
				c3.87-10.69,7.56-20.28,11.43-30.61l11.44-30.43h34.49l-41.49,88.7v48.5h-32.82V444.97z"/>
		</g>
	</g>
</g>
</svg>
