<?xml version="1.0" encoding="utf-8"?>
<!-- Generator: Adobe Illustrator 24.2.3, SVG Export Plug-In . SVG Version: 6.00 Build 0)  -->
<svg version="1.1" id="Layer_1" xmlns="http://www.w3.org/2000/svg" xmlns:xlink="http://www.w3.org/1999/xlink" x="0px" y="0px"
	 viewBox="0 0 1000 329.4" style="enable-background:new 0 0 1000 329.4;" xml:space="preserve">
<style type="text/css">
	.st0{fill:#0060AA;}
	.st1{fill:#00AEEF;}
</style>
<g>
	<g>
		<path class="st0" d="M41.1,178.7h33.6l34.2,65.8l13.5,30.5h0.9c-1.8-14.6-4.4-34.4-4.4-50.8v-45.4h31.4v137.4h-33.6l-34-66.3
			l-13.5-30.1h-0.9c1.5,15.3,4.3,34.2,4.3,50.8v45.6H41.1C41.1,316.1,41.1,178.7,41.1,178.7z"/>
		<path class="st0" d="M247,284.6h-40.6l-7.9,31.6h-33.6l42.7-137.4H247l42.7,137.4H255L247,284.6z M240.8,259.1l-3-11.6
			c-3.7-13.7-7.2-30.1-10.9-44.1h-0.7c-3.3,14.4-7,30.5-10.5,44.1l-3,11.6H240.8z"/>
		<path class="st0" d="M378.4,316.2l-25.3-48.4h-15.9v48.4h-33.1V178.7h50.4c29.4,0,53.8,10,53.8,43.2c0,20.1-9.4,33.1-23.6,39.7
			l30.7,54.5L378.4,316.2L378.4,316.2z M337.2,241.7H352c15.7,0,24-6.8,24-19.8s-8.3-17.2-24-17.2h-14.8V241.7z"/>
		<path class="st0" d="M421.6,178.7h33.8l8.7,62.6l5.5,43.6h0.7c2.6-14.6,5.4-29.4,8.1-43.6l14-62.6h27.7l14.4,62.6
			c2.8,14,5.2,28.8,7.9,43.6h0.9c1.7-14.8,3.5-29.4,5.2-43.6l8.9-62.6h31.4l-23.8,137.4h-41.6l-12.4-59.8c-2.2-10.5-4.1-21.6-5.4-32
			h-0.9c-1.7,10.3-3.3,21.4-5.4,32l-12,59.8h-40.8L421.6,178.7z"/>
		<path class="st0" d="M607.6,178.7h33.1V231h45.3v-52.3h32.7v137.4h-32.7v-56.5h-45.3v56.5h-33.1V178.7z"/>
		<path class="st0" d="M815.4,284.6h-40.6l-7.9,31.6h-33.6l42.7-137.4h39.5l42.7,137.4h-34.7L815.4,284.6z M809.1,259.1l-3-11.6
			c-3.7-13.7-7.2-30.1-10.9-44.1h-0.7c-3.3,14.4-7,30.5-10.5,44.1l-3,11.6H809.1z"/>
		<path class="st0" d="M872.5,178.7h33.1v109.7h53.4v27.7h-86.4V178.7z"/>
	</g>
	<g>
		<g>
			<path class="st1" d="M41.1,28.7h33v52.2h45.2V28.7h32.6v137.2h-32.6v-56.4H74.1v56.4h-33V28.7z"/>
			<path class="st1" d="M248.6,134.4H208l-7.9,31.5h-33.6l42.6-137.2h39.5l42.6,137.2h-34.7L248.6,134.4z M242.3,108.9l-2.9-11.6
				c-3.7-13.6-7.2-30.1-10.9-44.1h-0.7c-3.3,14.4-7,30.4-10.5,44.1l-2.9,11.6H242.3z"/>
			<path class="st1" d="M305.5,28.7h48.1c30.2,0,55.1,10.7,55.1,44.6c0,32.6-25.3,47-54.2,47h-16v45.5h-33V28.7z M352.9,94.3
				c16,0,23.8-7.6,23.8-21c0-13.8-8.9-18.6-24.7-18.6h-13.5v39.6H352.9z"/>
			<path class="st1" d="M432.2,28.7h48.1c30.2,0,55.1,10.7,55.1,44.6c0,32.6-25.3,47-54.2,47h-16v45.5h-33V28.7z M479.6,94.3
				c16,0,23.8-7.6,23.8-21c0-13.8-8.9-18.6-24.7-18.6h-13.5v39.6H479.6z"/>
			<path class="st1" d="M580.5,117.4l-41.3-88.7h35l11.4,30.4c3.7,10.3,7.2,19.9,11.1,30.6h0.7c3.9-10.7,7.6-20.3,11.4-30.6
				l11.4-30.4h34.5l-41.5,88.7v48.5h-32.8L580.5,117.4L580.5,117.4z"/>
		</g>
	</g>
</g>
</svg>
